<svg id="Layer_1" height="512" viewBox="0 0 512 512" width="512" xmlns="http://www.w3.org/2000/svg" xmlns:xlink="http://www.w3.org/1999/xlink" data-name="Layer 1"><linearGradient id="linear-gradient" gradientUnits="userSpaceOnUse" x1="578.969" x2="82.684" y1="423.388" y2="158.531"><stop offset=".19" stop-color="#fd9b02"/><stop offset="1" stop-color="#ff7302"/></linearGradient><linearGradient id="linear-gradient-2" gradientUnits="userSpaceOnUse" x1="220.764" x2="650.193" y1="256.082" y2="76.082"><stop offset="0" stop-color="#fd9b02"/><stop offset="1" stop-color="#ff7302"/></linearGradient><linearGradient id="linear-gradient-3" gradientUnits="userSpaceOnUse" x1="245.333" x2="245.333" y1="22.571" y2="373.687"><stop offset="0" stop-color="#fed200"/><stop offset="1" stop-color="#f59815"/></linearGradient><linearGradient id="linear-gradient-4" x1="245.901" x2="245.901" xlink:href="#linear-gradient-2" y1="19.357" y2="457.147"/><linearGradient id="linear-gradient-5" gradientUnits="userSpaceOnUse" x1="303.405" x2="442.61" y1="292.738" y2="431.943"><stop offset="0" stop-color="#34ca82"/><stop offset="1" stop-color="#37a477"/></linearGradient><linearGradient id="linear-gradient-6" gradientUnits="userSpaceOnUse" x1="328.817" x2="429.103" y1="301.132" y2="414.918"><stop offset="0" stop-color="#fff"/><stop offset="1" stop-color="#edf2f0"/></linearGradient><path d="m441.667 118.253-192-85.334a10.687 10.687 0 0 0 -8.667 0l-192 85.334a10.668 10.668 0 0 0 -6.333 9.747v234.667a10.668 10.668 0 0 0 6.333 9.747l192 85.333a10.666 10.666 0 0 0 8.667 0l192-85.333a10.668 10.668 0 0 0 6.333-9.747v-234.667a10.668 10.668 0 0 0 -6.333-9.747z" fill="url(#linear-gradient)"/><path d="m249.667 457.747 192-85.333a10.668 10.668 0 0 0 6.333-9.747v-234.667a10.668 10.668 0 0 0 -6.333-9.747l-192-85.334a10.691 10.691 0 0 0 -4.334-.919v426.667a10.7 10.7 0 0 0 4.334-.92z" fill="url(#linear-gradient-2)"/><path d="m245.333 213.333 201.65-89.622a10.568 10.568 0 0 0 -5.316-5.458l-192-85.334a10.687 10.687 0 0 0 -8.667 0l-192 85.334a10.568 10.568 0 0 0 -5.316 5.458z" fill="url(#linear-gradient-3)"/><path d="m156.467 173.837 205.133-91.17-26.265-11.673-205.133 91.17z" fill="url(#linear-gradient-4)"/><circle cx="373.333" cy="362.667" fill="url(#linear-gradient-5)" r="96"/><path d="m362.667 405.333a10.63 10.63 0 0 1 -7.542-3.125l-26.667-26.666a10.666 10.666 0 0 1 15.084-15.084l19.125 19.123 45.791-45.789a10.666 10.666 0 1 1 15.084 15.083l-53.334 53.333a10.628 10.628 0 0 1 -7.541 3.125z" fill="url(#linear-gradient-6)"/></svg>